<svg class="border shadow-md" viewBox="0 0 999.68 749.76" xmlns="http://www.w3.org/2000/svg" preserveAspectRatio="none" style="width: 999.68px; height: 749.76px;"><rect class="bg" id="bg" x="0" y="0" width="999.68" height="749.76" fill="#020608"/><g transform="rotate(0 499.84 374.88)"><path id="-1" d="M -599.84 -44.98 S -309.92 -110.98&#10;            0.00 -44.98 151.84 -82.46&#10;            599.84 -44.98 888.68 -115.98&#10;            1199.68 -44.98 1489.60 -82.46&#10;            1799.52 -44.98 h 110 V 949.76 H -599.84 Z" fill="#066D97"/><path id="0" d="M -599.84 30.00 S -309.92 -7.49&#10;            0.00 30.00 72.84 -38.00&#10;            599.84 30.00 889.76 -13.00&#10;            1199.68 30.00 1489.60 -40.00&#10;            1799.52 30.00 h 110 V 949.76 H -599.84 Z" fill="#0b6896"/><path id="1" d="M -599.84 104.98 S -309.92 67.49&#10;            0.00 104.98 289.92 35.98&#10;            599.84 104.98 889.76 67.49&#10;            1199.68 104.98 1489.60 32.98&#10;            1799.52 104.98 h 110 V 949.76 H -599.84 Z" fill="#106395"/><path id="2" d="M -599.84 179.95 S -309.92 139.95&#10;            0.00 179.95 289.92 109.95&#10;            599.84 179.95 884.68 142.46&#10;            1199.68 179.95 1489.60 142.46&#10;            1799.52 179.95 h 110 V 949.76 H -599.84 Z" fill="#155e94"/><path id="3" d="M -599.84 254.93 S -434.00 203.93&#10;            0.00 254.93 289.92 217.44&#10;            599.84 254.93 844.68 205.93&#10;            1199.68 254.93 1355.52 217.44&#10;            1799.52 254.93 h 110 V 949.76 H -599.84 Z" fill="#1a5993"/><path id="4" d="M -599.84 329.90 S -309.92 279.90&#10;            0.00 329.90 289.92 271.90&#10;            599.84 329.90 680.68 292.42&#10;            1199.68 329.90 1489.60 292.42&#10;            1799.52 329.90 h 110 V 949.76 H -599.84 Z" fill="#1f5492"/><path id="5" d="M -599.84 404.88 S -309.92 367.39&#10;            0.00 404.88 289.92 367.39&#10;            599.84 404.88 889.76 334.88&#10;            1199.68 404.88 1226.52 367.39&#10;            1799.52 404.88 h 110 V 949.76 H -599.84 Z" fill="#244f91"/><path id="6" d="M -599.84 479.86 S -440.00 442.37&#10;            0.00 479.86 289.92 442.37&#10;            599.84 479.86 889.76 442.37&#10;            1199.68 479.86 1284.52 442.37&#10;            1799.52 479.86 h 110 V 949.76 H -599.84 Z" fill="#294a90"/><path id="7" d="M -599.84 554.83 S -309.92 493.83&#10;            0.00 554.83 289.92 489.83&#10;            599.84 554.83 889.76 513.83&#10;            1199.68 554.83 1489.60 491.83&#10;            1799.52 554.83 h 110 V 949.76 H -599.84 Z" fill="#2e458f"/><path id="8" d="M -599.84 629.81 S -309.92 561.81&#10;            0.00 629.81 289.92 572.81&#10;            599.84 629.81 800.68 592.32&#10;            1199.68 629.81 1489.60 573.81&#10;            1799.52 629.81 h 110 V 949.76 H -599.84 Z" fill="#33408e"/><path id="9" d="M -599.84 704.78 S -309.92 667.30&#10;            0.00 704.78 289.92 649.78&#10;            599.84 704.78 889.76 666.78&#10;            1199.68 704.78 1204.52 667.30&#10;            1799.52 704.78 h 110 V 949.76 H -599.84 Z" fill="#383b8d"/></g></svg>